Coordinates
version=1
nRows=9
nColumns=36
inDegrees=yes

Units are S.I. units (second, meters, Newtons, ...)
If the header above contains a line with 'inDegrees', this indicates whether rotational values are in degrees (yes) or radians (no).

endheader
time	pelvis_tilt	pelvis_list	pelvis_rotation	pelvis_tx	pelvis_ty	pelvis_tz	hip_flexion_r	hip_adduction_r	hip_rotation_r	knee_angle_r	knee_angle_r_beta	ankle_angle_r	subtalar_angle_r	mtp_angle_r	hip_flexion_l	hip_adduction_l	hip_rotation_l	knee_angle_l	knee_angle_l_beta	ankle_angle_l	subtalar_angle_l	mtp_angle_l	lumbar_extension	lumbar_bending	lumbar_rotation	arm_flex_r	arm_add_r	arm_rot_r	elbow_flex_r	pro_sup_r	arm_flex_l	arm_add_l	arm_rot_l	elbow_flex_l	pro_sup_l
      0.00000000	      6.15823344	     -0.86424834	     -8.37465503	      0.18832051	      0.93111162	      0.69114733	     17.68959176	      0.04649299	      0.32718330	     57.56676784	      1.00472964	      5.27305952	    -15.12311403	     -7.29346130	     -5.06925974	      1.00695397	     -5.46361073	     13.23444964	      0.23098472	     10.19744267	     -9.40461468	     -7.29346130	    -12.61334603	     -2.11616874	      1.79739744	     -4.10482438	     -6.41906062	     -9.68266939	     27.43524779	     91.28319061	     11.09465276	    -10.96412971	     10.51529280	     21.94153922	     87.54977625
      0.01666670	      6.46059720	     -1.04277138	     -8.82690276	      0.17884060	      0.92532521	      0.69255076	     18.97789903	      0.28054859	      0.00862682	     55.44295592	      0.96766213	      6.70158641	    -14.49285488	     -7.30802774	     -6.26427332	      1.22231938	     -5.76768145	     12.59551429	      0.21983320	     10.92461156	    -10.12686523	     -7.30802774	    -13.64972675	     -2.25089182	      1.55189471	     -3.77262621	     -6.15140093	     -9.60096211	     27.84251670	     90.67567703	     12.06725727	    -11.13932786	     10.58191566	     22.59193040	     86.96501729
      0.03333330	      7.03202754	     -1.21734545	     -8.80663033	      0.16845772	      0.92644539	      0.69656223	     19.69693759	      0.93619322	     -0.07202940	     52.75092870	      0.92067739	      8.07301359	    -13.78415725	     -7.34935093	     -7.65699610	      1.29661450	     -5.45294550	     11.75313860	      0.20513097	     10.71752934	    -10.16871005	     -7.34935093	    -15.04657204	     -2.40875223	      1.87783349	     -3.98450876	     -5.67664627	    -10.97556583	     28.95278973	     92.90405291	     14.53500549	    -11.61374837	     13.02612400	     21.93393336	     89.37740239
      0.05000000	      7.27647956	     -1.74885350	     -8.34173991	      0.15925567	      0.92960726	      0.69784468	     20.53348644	      1.78632956	     -0.57264153	     49.38896395	      0.86200004	      8.53796333	    -13.88297957	     -7.35066704	     -8.61098223	      0.72320010	     -5.70574068	     11.26157760	      0.19655161	     10.64548436	     -9.89670008	     -7.35066704	    -16.06500045	     -1.98944168	      1.34841531	     -3.39292623	     -5.46524039	    -10.59136682	     28.84524358	     92.10567523	     16.32787305	    -12.00521848	     14.29253798	     21.55650389	     88.99620441
      0.06666670	      7.43733310	     -2.13539198	     -8.06944367	      0.15134301	      0.93085877	      0.69717200	     21.45591638	      2.45808140	     -0.67487395	     45.69972901	      0.79761074	      8.27719828	    -14.27848159	     -7.35798875	     -9.33519544	      0.28130515	     -6.20266928	     11.05886954	      0.19301368	     10.75805322	     -9.87425273	     -7.35798875	    -17.07760919	     -1.74119877	      1.03005420	     -2.78771111	     -5.20454526	    -10.62550708	     28.70301673	     92.07850619	     18.16262327	    -12.36887455	     15.72519427	     21.18193953	     90.06410118
      0.08333330	      7.24056307	     -2.31010566	     -7.98143247	      0.14683864	      0.92725723	      0.69708544	     22.76502361	      2.81427821	     -0.47897824	     41.99688215	      0.73298387	      8.36391596	    -14.29046989	     -7.36320873	     -9.79685996	      0.03273162	     -6.60431777	     10.78849886	      0.18829483	     11.39940486	     -9.64037999	     -7.36320873	    -17.61204453	     -1.61574202	      0.64143914	     -2.24060531	     -4.99976084	    -10.55700089	     28.29355996	     91.33492967	     19.46628409	    -12.65672559	     16.09992469	     21.34024462	     89.84327138
      0.10000000	      6.89635761	     -2.47520455	     -7.88674673	      0.14353157	      0.92228094	      0.69793491	     24.04571219	      3.05933386	     -0.23474555	     38.18547207	      0.66646221	      8.65865500	    -13.90001242	     -7.37016634	    -10.19524932	     -0.23782432	     -6.91575101	     10.68407730	      0.18647233	     13.16796899	     -8.63403622	     -7.37016634	    -17.93754699	     -1.38764088	      0.16315406	     -1.86450044	     -4.88461333	    -10.60148004	     27.98338621	     91.48351996	     20.56877678	    -12.97618715	     16.62090941	     21.75143404	     90.63945192
      0.11666670	      6.29031111	     -2.52138899	     -7.77580749	      0.13783939	      0.91838327	      0.69776991	     25.50229441	      3.12600531	     -0.03270302	     34.59354073	      0.60377119	      8.89739763	    -13.06450370	     -7.36789940	    -10.25227947	     -0.36838051	     -6.88180598	     10.86304942	      0.18959598	     15.34931546	     -7.85883483	     -7.36789940	    -17.89198196	     -1.21721547	     -0.45678766	     -1.35597905	     -4.82636560	    -10.50644254	     27.06680937	     91.24934768	     21.42779311	    -13.31260065	     16.78934243	     22.66719989	     90.73507129
      0.13333330	      5.58030911	     -2.52990872	     -7.59935826	      0.13030637	      0.91442085	      0.69668388	     27.08295107	      3.14917001	      0.08065241	     31.52923839	      0.55028902	      8.42898509	    -12.73755830	     -7.37569274	     -9.95743026	     -0.46040866	     -6.80644218	     11.51222109	      0.20092616	     17.72027712	     -7.06705852	     -7.37569274	    -17.81654923	     -1.02842480	     -1.09122217	     -0.85829294	     -4.81907685	    -10.71967526	     26.29203005	     92.12469469	     22.26274387	    -13.58608167	     16.39064264	     24.02267811	     92.05640485
